<?xml version="1.0" encoding="utf-8"?>
<!-- Svg Vector Icons : http://www.onlinewebfonts.com/icon -->
<!DOCTYPE svg PUBLIC "-//W3C//DTD SVG 1.1//EN" "http://www.w3.org/Graphics/SVG/1.1/DTD/svg11.dtd">
<svg version="1.1" xmlns="http://www.w3.org/2000/svg" xmlns:xlink="http://www.w3.org/1999/xlink" x="0px" y="0px" viewBox="0 0 1000 1000" enable-background="new 0 0 1000 1000" xml:space="preserve">
<metadata> Svg Vector Icons : http://www.onlinewebfonts.com/icon </metadata>
<g><g transform="matrix(1 0 0 -1 0 1920)"><path d="M208.3,1726.9l-74.7,74.7L242,1910l74.7-74.7L208.3,1726.9z M309.3,1625.9l-74.7,74.7L343,1809l74.7-74.7L309.3,1625.9z M410.3,1524.9l-74.7,74.7L443.9,1708l74.7-74.7L410.3,1524.9z M511.3,1314.5c-16.8,0-31.1,5.9-42.8,17.8l-56.2,56.2c-11.9,11.7-17.8,25.9-17.8,42.8s5.9,31.1,17.8,42.8l157.2,157.2c11.7,11.9,25.9,17.8,42.8,17.8c16.8,0,31.1-5.9,42.8-17.8l56.2-56.2c11.9-11.7,17.8-25.9,17.8-42.8c0-16.8-5.9-31.1-17.8-42.8L554,1332.3C542.4,1320.4,528.1,1314.5,511.3,1314.5z M679.6,1255.5l-74.7,74.7l108.4,108.4l74.7-74.7L679.6,1255.5z M437.2,1192.9l-164.3,164.3c0.9,0.7,2.1,1.6,3.7,2.7c1.6,1.1,5,3.1,10.3,5.9c5.3,2.8,10.6,5.3,16,7.6s12.1,4.3,20.2,6.1c8.1,1.8,16,2.7,23.9,2.7c29.4,0,55.9-11.8,79.6-35.5s35.5-50.2,35.5-79.6c0-5.8-0.4-11.6-1.3-17.3s-2.1-10.9-3.5-15.7c-1.5-4.7-3.1-9.3-4.9-13.6c-1.8-4.4-3.6-8.2-5.4-11.4c-1.8-3.3-3.4-6.1-4.9-8.6c-1.5-2.5-2.6-4.3-3.5-5.4L437.2,1192.9z M780.6,1154.5l-74.7,74.7l108.4,108.4l74.7-74.7L780.6,1154.5z M336.9,1067.4c-1.8,0-3.5,0.2-5,0.7l-16.2,5.4c-38.4,12.3-71.9,32.9-100.7,61.6c-28.7,28.7-49.3,62.3-61.6,100.7l-5.4,16.2c-0.4,1.6-0.7,3.3-0.7,5.1c0,3.6,1.1,6.9,3.2,9.9s4.9,5.1,8.2,6.2l32.3,10.4c1.6,0.4,3.3,0.7,5,0.7c3.6,0,6.8-1.1,9.8-3.2c2.9-2.1,4.9-5,6.1-8.6l5.4-15.8c9-28.3,24-53,45.1-74.1c21.1-21.1,45.8-36.1,74.1-45.1l15.8-5.4c3.6-1.1,6.5-3.1,8.6-6.1c2.1-2.9,3.2-6.2,3.2-9.8c0-1.8-0.2-3.6-0.7-5.4l-10.4-32c-1.1-3.4-3.2-6.1-6.2-8.2C343.8,1068.4,340.5,1067.4,336.9,1067.4z M339.6,930c-1.1,0-2.2,0.1-3.4,0.3l-16.5,3c-50.7,9.9-97.6,29.2-140.6,58.1s-78.9,64.8-107.7,107.7c-28.8,43-48.2,89.8-58.1,140.6l-3,16.5c-0.2,1.1-0.3,2.2-0.3,3.4c0,3.8,1.3,7.3,3.9,10.4c2.6,3.1,5.9,5.2,9.9,6.1l33,6.4c1.1,0.2,2.1,0.3,3,0.3c4,0,7.6-1.3,10.8-3.9c3.1-2.6,5-5.9,5.7-9.9l3.4-16.5c8.1-41.7,24-80.4,47.8-116c23.8-35.6,53.5-65.3,89-89c35.6-23.8,74.2-39.7,116-47.8l16.5-3.4c2.7-0.4,5-1.5,7.1-3c2-1.6,3.6-3.5,4.9-5.9c1.2-2.4,1.9-4.9,1.9-7.6c0-1.1-0.1-2.1-0.3-3l-6.4-33.3c-0.4-1.8-1.2-3.6-2.2-5.4c-1-1.8-2.2-3.3-3.7-4.4c-1.5-1.1-3.1-2-5-2.7C343.2,930.3,341.4,930,339.6,930z M881.6,1053.6l-74.7,74.7l108.4,108.4L990,1162L881.6,1053.6z"/></g></g>
</svg>