<?xml version="1.0" encoding="iso-8859-1"?>
<!-- Generator: Adobe Illustrator 17.1.0, SVG Export Plug-In . SVG Version: 6.00 Build 0)  -->
<!DOCTYPE svg PUBLIC "-//W3C//DTD SVG 1.1//EN" "http://www.w3.org/Graphics/SVG/1.1/DTD/svg11.dtd">
<svg version="1.1" id="Capa_1" xmlns="http://www.w3.org/2000/svg" xmlns:xlink="http://www.w3.org/1999/xlink" x="0px" y="0px"
	 viewBox="0 0 490 490" style="enable-background:new 0 0 490 490;" xml:space="preserve">
<g>
	<path d="M310.88,72.408c0,5.745-4.659,10.402-10.402,10.402H189.522c-5.743,0-10.402-4.658-10.402-10.402V10.401
		C179.119,4.657,183.778,0,189.522,0h110.956c5.743,0,10.402,4.657,10.402,10.401V72.408z"/>
	<path d="M356.473,188.908c4.185-2.906,6.675-7.676,6.675-12.768v-43.484c0-8.588-6.961-15.551-15.548-15.551h-36.72v-15.606
		c0-3.21-2.606-5.813-5.815-5.813H184.933c-3.209,0-5.814,2.604-5.814,5.813v15.606h-36.715c-8.588,0-15.552,6.963-15.552,15.551
		v43.484c0,5.092,2.494,9.862,6.675,12.768c5.925,4.116,9.461,10.865,9.461,18.049s-3.536,13.935-9.461,18.049
		c-4.181,2.906-6.675,7.677-6.675,12.771v39.415c0,5.091,2.494,9.86,6.677,12.768c5.923,4.118,9.459,10.865,9.459,18.05
		c0,7.185-3.536,13.933-9.459,18.049c-4.183,2.907-6.677,7.678-6.677,12.77v135.623c0,8.588,6.964,15.549,15.552,15.549H347.6
		c8.587,0,15.548-6.961,15.548-15.549V338.829c0-5.092-2.49-9.862-6.675-12.77c-5.923-4.117-9.459-10.864-9.459-18.049
		c0-7.185,3.536-13.932,9.459-18.05c4.185-2.907,6.675-7.677,6.675-12.768v-39.415c0-5.093-2.49-9.862-6.675-12.769
		c-5.923-4.117-9.459-10.867-9.459-18.051S350.55,193.024,356.473,188.908z M315.868,394.664c0,5.612-4.55,10.16-10.165,10.16
		H184.297c-5.616,0-10.165-4.548-10.165-10.16V183.338c0-5.608,4.549-10.158,10.165-10.158h121.406
		c5.615,0,10.165,4.549,10.165,10.158V394.664z"/>
	<g>
		<path d="M228.201,223.908c-0.05-0.8-0.569-1.495-1.321-1.768l-17.662-6.432c-0.665-0.243-1.442-0.106-1.982,0.348
			c-0.549,0.461-0.814,1.187-0.689,1.895l3.266,18.527c0.133,0.792,0.728,1.425,1.518,1.615c0.157,0.037,0.313,0.055,0.465,0.055
			c0.625,0,1.226-0.299,1.608-0.802c3.626-4.82,8.363-8.803,13.703-11.519C227.821,225.459,228.251,224.706,228.201,223.908z"/>
		<path d="M254.413,222.617h0.056c0.56,0,1.072-0.213,1.443-0.601c0.355-0.372,0.553-0.873,0.553-1.41
			c0-0.51-0.186-0.989-0.524-1.36l-9.196-15.928c-0.34-0.591-1.009-0.958-1.744-0.958c-0.736,0-1.404,0.367-1.743,0.957
			l-9.398,16.28c-0.401,0.692-0.353,1.557,0.124,2.204c0.377,0.511,0.983,0.816,1.621,0.816c0.145,0,0.295-0.017,0.454-0.05
			c3.049-0.708,5.974-1.051,8.941-1.051c2.968,0,5.895,0.344,8.958,1.054C254.102,222.6,254.254,222.616,254.413,222.617z
			 M254.469,221.961L254.469,221.961v0.003V221.961z"/>
		<path d="M278.203,238.143c0.153,0,0.311-0.018,0.47-0.055c0.779-0.187,1.371-0.818,1.509-1.607l3.271-18.525
			c0.126-0.711-0.141-1.437-0.684-1.887c-0.537-0.459-1.318-0.597-1.986-0.354l-17.664,6.422c-0.754,0.274-1.273,0.968-1.324,1.768
			c-0.05,0.802,0.38,1.554,1.096,1.916c5.336,2.714,10.074,6.697,13.704,11.517C276.975,237.843,277.576,238.143,278.203,238.143z"
			/>
		<path d="M302.857,250.871c-0.119-0.704-0.613-1.295-1.29-1.544l-17.611-6.418c-0.744-0.275-1.617-0.068-2.151,0.501
			c-0.555,0.58-0.711,1.434-0.396,2.176c2.09,4.906,3.149,10.115,3.149,15.482c0,0.468-0.032,0.924-0.067,1.415l-0.044,0.728
			c-0.042,0.801,0.396,1.549,1.113,1.906c0.278,0.139,0.587,0.212,0.897,0.212c0.479,0,0.941-0.17,1.293-0.474l14.423-12.096
			C302.723,252.295,302.985,251.568,302.857,250.871z"/>
		<path d="M240.235,300.31c-6.05-0.728-11.703-2.782-16.801-6.105c-0.656-0.432-1.545-0.43-2.208,0.004
			c-0.669,0.439-1.013,1.235-0.875,2.032l3.261,18.495c0.123,0.703,0.618,1.294,1.308,1.55c0.221,0.075,0.453,0.114,0.673,0.114
			c0.475,0,0.922-0.161,1.297-0.469l14.406-12.082c0.614-0.525,0.859-1.356,0.628-2.109
			C241.697,300.971,241.036,300.41,240.235,300.31z"/>
		<path d="M203.544,265.332c0.303,0,0.612-0.072,0.902-0.213c0.715-0.358,1.149-1.107,1.106-1.915l-0.048-0.755
			c-0.032-0.474-0.063-0.921-0.063-1.381c0-5.365,1.059-10.571,3.146-15.475c0.313-0.737,0.159-1.59-0.394-2.175
			c-0.542-0.566-1.408-0.772-2.148-0.503l-17.614,6.408c-0.677,0.247-1.171,0.839-1.289,1.538c-0.13,0.709,0.133,1.436,0.687,1.898
			l14.419,12.101C202.611,265.164,203.072,265.332,203.544,265.332z"/>
		<path d="M268.782,294.208c-0.655-0.436-1.552-0.44-2.212-0.011c-5.092,3.326-10.744,5.382-16.797,6.112
			c-0.795,0.092-1.458,0.65-1.689,1.425c-0.229,0.771,0.022,1.602,0.636,2.114l14.391,12.082c0.362,0.303,0.823,0.47,1.297,0.47
			c0.24,0,0.473-0.042,0.686-0.122c0.674-0.248,1.171-0.838,1.295-1.541l3.266-18.503
			C269.795,295.441,269.451,294.644,268.782,294.208z"/>
		<path d="M286.506,272.186c-0.358-0.624-1.018-1.012-1.724-1.012c-0.085,0-0.171,0.005-0.246,0.016
			c-0.8,0.089-1.466,0.646-1.698,1.415c-1.735,5.687-4.842,11.031-8.984,15.457c-0.547,0.591-0.693,1.446-0.374,2.175
			c0.317,0.737,1.044,1.213,1.849,1.213l18.809,0.004c0.717,0,1.384-0.387,1.739-1.005c0.362-0.621,0.362-1.393,0.002-2.014
			L286.506,272.186z"/>
		<path d="M207.167,272.613c-0.235-0.767-0.903-1.321-1.691-1.412c-0.796-0.107-1.573,0.293-1.981,0.993l-9.374,16.235
			c-0.362,0.621-0.362,1.395-0.003,2.013c0.356,0.622,1.025,1.009,1.744,1.009l18.815,0.003c0.805,0,1.53-0.476,1.845-1.208
			c0.323-0.739,0.177-1.594-0.373-2.18C212.005,283.641,208.898,278.298,207.167,272.613z"/>
	</g>
	<path d="M277.16,261.068c0,17.761-14.397,32.161-32.16,32.161s-32.16-14.399-32.16-32.161c0-17.759,14.398-32.16,32.16-32.16
		S277.16,243.309,277.16,261.068z"/>
	<g>
		<path d="M217.196,340.542c-2.317,0-4.203,1.883-4.203,4.205v21.147c0,3.383-2.746,6.133-6.127,6.133
			c-3.383,0-6.132-2.75-6.132-6.133v-21.147c0-2.322-1.883-4.205-4.203-4.205c-2.319,0-4.201,1.883-4.201,4.205v21.147
			c0,8.017,6.521,14.539,14.536,14.539c8.016,0,14.535-6.522,14.535-14.539v-21.147
			C221.401,342.424,219.519,340.542,217.196,340.542z"/>
		<path d="M260.527,340.905c-2.12-0.946-4.605,0.01-5.548,2.132l-10.207,22.931l-10.186-22.884c-0.941-2.12-3.428-3.076-5.549-2.129
			c-2.118,0.941-3.072,3.428-2.131,5.548l14.014,31.483c0.697,1.566,2.231,2.496,3.84,2.496c0.572,0,1.151-0.117,1.704-0.366
			c0.348-0.15,0.652-0.357,0.929-0.585c0.117-0.088,0.229-0.187,0.333-0.29c0.049-0.049,0.098-0.092,0.143-0.143
			c0.314-0.331,0.582-0.717,0.775-1.16l14.014-31.484C263.603,344.333,262.647,341.847,260.527,340.905z"/>
		<path d="M297.305,374.52l-14.01-31.483c-0.697-1.567-2.232-2.497-3.842-2.497c-0.57,0-1.152,0.117-1.709,0.365
			c-0.341,0.151-0.647,0.357-0.923,0.586c-0.116,0.088-0.226,0.184-0.335,0.29c-0.046,0.048-0.095,0.092-0.141,0.143
			c-0.314,0.331-0.581,0.717-0.778,1.159l-14.011,31.484c-0.944,2.12,0.012,4.607,2.131,5.548c2.12,0.948,4.605-0.01,5.549-2.13
			l3.361-7.553h13.688l3.341,7.505c0.944,2.121,3.428,3.076,5.548,2.13C297.296,379.126,298.249,376.641,297.305,374.52z
			 M279.442,355.053l3.394,7.626h-6.788L279.442,355.053z"/>
	</g>
</g>
<g>
</g>
<g>
</g>
<g>
</g>
<g>
</g>
<g>
</g>
<g>
</g>
<g>
</g>
<g>
</g>
<g>
</g>
<g>
</g>
<g>
</g>
<g>
</g>
<g>
</g>
<g>
</g>
<g>
</g>
</svg>
