<?xml version="1.0" encoding="iso-8859-1"?>
<!-- Generator: Adobe Illustrator 19.0.0, SVG Export Plug-In . SVG Version: 6.00 Build 0)  -->
<svg version="1.1" id="Layer_1" xmlns="http://www.w3.org/2000/svg" xmlns:xlink="http://www.w3.org/1999/xlink" x="0px" y="0px"
	 viewBox="0 0 512.004 512.004" style="enable-background:new 0 0 512.004 512.004;" xml:space="preserve">
<g transform="translate(1 1)">
	<g>
		<g>
			<circle cx="288.92" cy="280.603" r="8.533"/>
			<circle cx="288.92" cy="340.337" r="8.533"/>
			<circle cx="288.92" cy="400.07" r="8.533"/>
			<path d="M382.787,237.939h-51.2c-4.713,0-8.533,3.82-8.533,8.533v68.267c0,4.713,3.82,8.533,8.533,8.533h51.2
				c4.713,0,8.533-3.82,8.533-8.533v-68.267C391.32,241.76,387.499,237.939,382.787,237.939z M374.253,306.206H340.12v-51.2h34.133
				V306.206z"/>
			<path d="M432.492,189.381c-24.73-21.227-37.919-69.219-26.586-155.128c0.555-4.207-2.066-8.183-6.151-9.331l-91.093-25.6
				c-4.957-1.393-10.009,1.888-10.753,6.983c-0.059,0.405-0.059,0.405-0.353,2.378c-0.034,0.225-0.07,0.469-0.105,0.702
				c-9.452,9.33-25.047,15.219-42.295,15.219c-17.237,0-32.833-5.858-42.29-15.146c-0.039-0.258-0.079-0.527-0.116-0.775
				c-0.294-1.974-0.294-1.974-0.353-2.378c-0.743-5.093-5.793-8.374-10.748-6.984l-91.273,25.6
				c-4.088,1.146-6.711,5.123-6.156,9.332c11.333,85.909-1.856,133.901-26.589,155.131c-8.406,7.208-11.855,18.447-9.358,29.384
				c3.84,16.796,6.224,57.92,7.295,115.11c0.69,36.852,0.778,76.021,0.515,111.777c-0.029,3.883-0.059,7.35-0.09,10.354
				c-0.018,1.8-0.033,3.048-0.041,3.687c-0.048,3.84,2.474,7.24,6.164,8.306l147.661,42.667c2.358,0.681,4.895,0.314,6.963-1.007
				l34.293-21.908l20.751,20.751c2.286,2.286,5.669,3.084,8.736,2.06l127.821-42.667c3.491-1.165,5.841-4.437,5.831-8.118
				c-0.001-0.311-0.001-0.311-0.003-1.822c-0.016-11.433,0.015-26.851,0.133-44.817c0.178-27.199,0.521-54.076,1.066-79.193
				c1.246-57.411,3.404-98.613,6.554-115.516C443.982,207.364,440.746,196.459,432.492,189.381z M293.814,32.71
				c-0.365,2.267-0.74,4.58-1.126,6.942c-4.095,25.032-8.544,50.06-13.187,73.4c-1.282,6.446-2.558,12.654-3.826,18.61
				c-0.016,0.075-0.032,0.15-0.048,0.224c-0.259,1.217-0.518,2.405-0.776,3.6c-4.094,18.839-8.139,35.082-11.87,47.85
				c-1.102,3.719-2.193,7.188-3.268,10.356c-1.592,4.691-3.147,8.668-4.56,11.846c-1.414-3.178-2.968-7.155-4.56-11.846
				c-0.986-2.904-1.985-6.072-2.993-9.441c-4.185-14.195-8.778-32.823-13.399-54.636c-0.01-0.049-0.021-0.098-0.031-0.147
				c-0.357-1.685-0.714-3.395-1.07-5.117c-0.191-0.922-0.382-1.853-0.573-2.786c-0.633-3.087-1.259-6.197-1.88-9.322
				c-0.329-1.657-0.655-3.333-0.982-5.006c-0.27-1.382-0.54-2.764-0.808-4.151c-0.494-2.562-0.986-5.133-1.475-7.726
				c-0.013-0.07-0.026-0.14-0.04-0.211c-3.395-18.026-6.658-36.759-9.723-55.495c-0.385-2.352-0.758-4.655-1.121-6.913
				c11.172,5.734,24.574,8.93,38.659,8.93C269.245,41.67,282.646,38.463,293.814,32.71z M230.807,493.2l-137.72-39.794
				c0.022-2.323,0.043-4.871,0.063-7.626c0.264-35.892,0.176-75.198-0.518-112.222c-1.097-58.589-3.508-100.162-7.721-118.592
				c-1.116-4.886,0.343-9.637,3.833-12.629c28.852-24.765,43.607-76.274,33.317-162.968l74.895-21.006
				c0.347,2.255,0.711,4.597,1.088,7.002c4.465,28.598,9.868,60.028,15.833,90.055c0.063,0.319,0.126,0.645,0.189,0.964
				c0.063,0.316,0.125,0.621,0.188,0.936c0.222,1.113,0.446,2.221,0.67,3.33c0.271,1.344,0.542,2.68,0.813,4.003
				c0.072,0.354,0.144,0.712,0.216,1.065c0.122,0.594,0.243,1.169,0.364,1.758c0.182,0.882,0.365,1.766,0.547,2.639
				c7.252,34.813,13.904,60.775,20.618,77.458c2.964,7.541,5.905,13.138,9.136,16.906v235.325c0,2.263,0.899,4.434,2.499,6.034
				l9.558,9.558L230.807,493.2z M425.144,215.307c-3.392,18.204-5.568,59.748-6.838,118.27c-0.547,25.213-0.891,52.173-1.069,79.452
				c-0.104,15.842-0.14,29.71-0.137,40.629l-116.977,39.047l-21.861-21.861c-0.003-0.003-0.005-0.006-0.008-0.008l-14.567-14.567
				v-231.79c3.169-3.697,6.061-9.16,8.968-16.485c7.062-17.375,14.049-44.992,21.728-82.391
				c7.185-34.995,13.666-72.757,18.753-105.851c0.071-0.462,0.144-0.93,0.214-1.385l74.717,20.998
				c-10.29,86.697,4.464,138.207,33.314,162.97C424.743,205.219,426.143,209.937,425.144,215.307z"/>
		</g>
	</g>
</g>
<g>
</g>
<g>
</g>
<g>
</g>
<g>
</g>
<g>
</g>
<g>
</g>
<g>
</g>
<g>
</g>
<g>
</g>
<g>
</g>
<g>
</g>
<g>
</g>
<g>
</g>
<g>
</g>
<g>
</g>
</svg>
